<svg xmlns="http://www.w3.org/2000/svg" xmlns:xlink="http://www.w3.org/1999/xlink" viewBox="0,0,256,256" width="64px" height="64px" fill-rule="nonzero"><g fill="none" fill-rule="nonzero" stroke="none" stroke-width="1" stroke-linecap="butt" stroke-linejoin="miter" stroke-miterlimit="10" stroke-dasharray="" stroke-dashoffset="0" font-family="none" font-weight="none" font-size="none" text-anchor="none" style="mix-blend-mode: normal"><g transform="scale(4,4)"><path d="M31,3c-15.46397,0 -28,12.53603 -28,28c0,15.46397 12.53603,28 28,28c15.46397,0 28,-12.53603 28,-28c0,-15.46397 -12.53603,-28 -28,-28z" fill="#e5e7ec"></path><path d="M31,54c-12.70255,0 -23,-10.29745 -23,-23c0,-12.70255 10.29745,-23 23,-23c12.70255,0 23,10.29745 23,23c0,12.70255 -10.29745,23 -23,23z" fill="#ffffff"></path><path d="M36.08,43.35c1.69815,1.82214 2.72763,4.16667 2.92,6.65v5.25c0,0.55 0.23,2.13 0.9,2.31l-8.9,1.62l-9,-1.61c0.72,-0.16 1,-1.77 1,-2.32c0,-0.55 0,-0.91 0,-3.25c-7.79,1.69 -9.4,-4.3 -9.4,-4.3c-1.28,-3.23 -3.11,-4.1 -3.11,-4.1c-2.54,-1.73 0.19,-1.7 0.19,-1.7c1.81016,0.24153 3.40589,1.30905 4.32,2.89c2.5,4.27 6.44,3.92 8,3.21c0.26,-1.81 2.1,-3.93 2.9,-4.63c-6.22,-0.71 -12.76,-3.11 -12.76,-13.84c-0.05025,-2.78435 0.974,-5.48106 2.86,-7.53c-0.85057,-2.41601 -0.75047,-5.06507 0.28,-7.41c0,0 2.35,-0.75 7.7,2.87c4.58301,-1.24961 9.41699,-1.24961 14,0c5.34,-3.62 7.69,-2.87 7.69,-2.87c1.04681,2.33852 1.16479,4.98769 0.33,7.41c1.88483,2.04236 2.91237,4.73115 2.87,7.51c-0.01,10.78 -6.55,13.15 -12.79,13.84z" fill="#f1ede8"></path><path d="M31,2c-14.14282,0.00827 -26.21705,10.21711 -28.5766,24.16171c-2.35955,13.9446 5.68382,27.55752 19.0366,32.21829c0.16045,0.11645 0.35189,0.18259 0.55,0.19c10.89324,3.5537 22.85758,0.36022 30.53096,-8.14923c7.67338,-8.50944 9.61691,-20.73919 4.95955,-31.20821c-4.65736,-10.46902 -15.04227,-17.21421 -26.50052,-17.21256zM23.7,57c0.18223,-0.56278 0.28325,-1.14869 0.3,-1.74v-0.54c0,-0.45 0,-1.06 0,-2.72c0.00684,-0.30596 -0.1268,-0.59822 -0.3627,-0.79318c-0.2359,-0.19496 -0.5481,-0.27117 -0.8473,-0.20682c-6.72,1.46 -8.17,-3.38 -8.23,-3.58v-0.11c-0.58386,-1.66605 -1.62321,-3.13499 -3,-4.24c1.06762,0.43911 1.96532,1.21057 2.56,2.2c2.64,4.53 7,4.65 9.3,3.62c0.31245,-0.14039 0.53131,-0.43094 0.58,-0.77c0.46196,-1.54673 1.34896,-2.93267 2.56,-4c0.29477,-0.2634 0.40671,-0.67573 0.2856,-1.05203c-0.12111,-0.3763 -0.45253,-0.64594 -0.8456,-0.68797c-5.87,-0.67 -11.87,-2.72 -11.87,-12.84c-0.04148,-2.53257 0.89722,-4.98322 2.62,-6.84c0.2853,-0.27299 0.38325,-0.6883 0.25,-1.06c-0.72132,-1.96592 -0.72132,-4.12408 0,-6.09c0.85,0 2.92,0.39 6.42,2.76c0.2426,0.1665 0.54621,0.21771 0.83,0.14c4.41238,-1.20621 9.06762,-1.20621 13.48,0c0.28379,0.07771 0.5874,0.0265 0.83,-0.14c3.51,-2.38 5.59,-2.74 6.41,-2.77c0.74381,1.9611 0.76861,4.12234 0.07,6.1c-0.14429,0.35737 -0.07038,0.76586 0.19,1.05c1.71915,1.85834 2.65419,4.30881 2.61,6.84c0,10.13 -6,12.17 -11.89,12.82c-0.39431,0.04524 -0.72454,0.31938 -0.84157,0.69863c-0.11703,0.37925 0.00131,0.79181 0.30157,1.05137c1.47815,1.63515 2.38685,3.70514 2.59,5.9v5.25c0.01338,0.59412 0.11102,1.18333 0.29,1.75c-4.77018,1.34615 -9.81982,1.34615 -14.59,0zM40.2,56.4c-0.11893,-0.36552 -0.18624,-0.74586 -0.2,-1.13v-5.27c-0.11743,-2.1151 -0.80885,-4.15825 -2,-5.91c5.55,-0.94 11.89,-3.82 11.89,-14.56c0.04383,-2.82198 -0.92868,-5.5656 -2.74,-7.73c0.70319,-2.50139 0.5339,-5.16764 -0.48,-7.56c-0.11027,-0.27582 -0.33745,-0.48835 -0.62,-0.58c-0.28,-0.09 -2.85,-0.76 -8.18,2.74c-4.48146,-1.14416 -9.17854,-1.14416 -13.66,0c-5.33,-3.5 -7.9,-2.83 -8.18,-2.74c-0.28255,0.09165 -0.50973,0.30418 -0.62,0.58c-1.01548,2.39199 -1.1848,5.05878 -0.48,7.56c-1.8121,2.16395 -2.78473,4.90788 -2.74,7.73c0,10.65 6.23,13.58 11.73,14.56c-0.7763,0.93267 -1.36692,2.0053 -1.74,3.16c-1.42,0.4 -4.34,0.41 -6.29,-2.94c-1.08597,-1.88062 -2.99394,-3.14025 -5.15,-3.4c-0.54,0 -1.9,0.09 -2.22,1.13c-0.32,1.04 0.91,2 1.46,2.4l0.13,0.07c0.06,0 1.52,0.8 2.6,3.53c0.23,0.71 2.22,6.1 9.35,5.15c0,0.79 0,1.19 0,1.5v0.56c-0.01524,0.38481 -0.08597,0.76541 -0.21,1.13c-12.32351,-4.46915 -19.65635,-17.14443 -17.38753,-30.05546c2.26881,-12.91103 13.48367,-22.32698 26.59253,-22.32698c13.10886,0 24.32372,9.41595 26.59253,22.32698c2.26881,12.91103 -5.06402,25.58631 -17.38753,30.05546z" fill="#2a7ae4"></path><path d="M31,37c-0.55228,0 -1,0.44772 -1,1v2c0,0.55228 0.44772,1 1,1c0.55228,0 1,-0.44772 1,-1v-2c0,-0.55228 -0.44772,-1 -1,-1zM35.6,39.53c0.14636,0.53295 0.69705,0.84636 1.23,0.7c0.53295,-0.14636 0.84636,-0.69705 0.7,-1.23l-0.53,-1.92c-0.15796,-0.51527 -0.69585,-0.81268 -1.21624,-0.67247c-0.52039,0.14021 -0.83605,0.66758 -0.71376,1.19247zM21.75,34.52c-0.23052,-0.13355 -0.50481,-0.16958 -0.762,-0.10012c-0.2572,0.06946 -0.47605,0.23868 -0.608,0.47012l-1,1.73c-0.2484,0.47485 -0.07832,1.06111 0.38564,1.32929c0.46396,0.26819 1.05686,0.12296 1.34436,-0.32929l1,-1.73c0.13437,-0.22931 0.17194,-0.50268 0.10439,-0.75973c-0.06755,-0.25705 -0.23464,-0.47664 -0.46439,-0.61027zM40.88,37.62c0.17026,0.32548 0.50526,0.53141 0.87255,0.53638c0.36729,0.00497 0.70774,-0.19182 0.88675,-0.51257c0.17901,-0.32075 0.16776,-0.71382 -0.0293,-1.02381l-1,-1.73c-0.2875,-0.45225 -0.8804,-0.59748 -1.34436,-0.32929c-0.46396,0.26819 -0.63404,0.85444 -0.38564,1.32929zM26.21,36.37c-0.5328,-0.13972 -1.07828,0.17772 -1.22,0.71l-0.52,1.92c-0.10711,0.34939 -0.0151,0.72939 0.23998,0.99109c0.25508,0.2617 0.63259,0.36341 0.98462,0.26529c0.35202,-0.09813 0.62249,-0.38046 0.70541,-0.73637l0.52,-1.93c0.13972,-0.5328 -0.17772,-1.07828 -0.71,-1.22zM41.35,9.46c-0.74766,-0.37544 -1.5155,-0.70929 -2.3,-1c-0.50623,-0.15711 -1.04712,0.10807 -1.23294,0.60449c-0.18582,0.49641 0.04797,1.05158 0.53294,1.26551c0.71616,0.26838 1.41719,0.5755 2.1,0.92c0.13932,0.07138 0.29346,0.10906 0.45,0.11c0.46084,-0.00273 0.86014,-0.32005 0.96688,-0.76836c0.10674,-0.44832 -0.10672,-0.91153 -0.51688,-1.12164zM34.65,7.29c-5.16375,-0.81845 -10.4524,0.14056 -15,2.72c-0.39621,0.22452 -0.59069,0.68838 -0.47305,1.12833c0.11763,0.43995 0.51766,0.74485 0.97305,0.74167c0.17179,-0.00053 0.34054,-0.0453 0.49,-0.13c4.15455,-2.35289 8.98427,-3.22718 13.7,-2.48c0.55228,0.08837 1.07163,-0.28772 1.16,-0.84c0.08837,-0.55228 -0.28772,-1.07163 -0.84,-1.16z" fill="#2a7ae4"></path></g></g></svg>